<?xml version="1.0" encoding="UTF-8"?>
<svg version="1.1" xmlns="http://www.w3.org/2000/svg" width="3840" height="3784">
<path d="M0 0 C9.89807339 8.42422234 16.76030166 19.42422694 18.15625 32.54296875 C18.49556543 41.1361321 17.50260665 48.53577781 15.04296875 56.76953125 C14.58418587 58.35616577 14.58418587 58.35616577 14.11613464 59.97485352 C13.41610075 62.39456413 12.71162499 64.81299245 12.00360107 67.2303772 C10.70259362 71.67714184 9.42877904 76.13154676 8.15673828 80.58666992 C5.27966807 90.65785457 2.38789785 100.72477897 -0.50635147 110.79103851 C-1.38870062 113.86015553 -2.27073419 116.92936309 -3.15267944 119.99859619 C-14.70632904 160.2049249 -26.30510406 200.398191 -37.91383553 240.58864403 C-44.6551946 263.9279196 -51.38870402 287.26945757 -58.12115097 310.61130524 C-59.69245533 316.05908033 -61.263835 321.50683371 -62.83520508 326.95458984 C-65.04293957 334.60857989 -67.25064225 342.26257912 -69.45831203 349.91658783 C-74.16285425 366.22725564 -78.86774647 382.53782248 -83.57279968 398.8483429 C-84.19819163 401.01632682 -84.82358327 403.18431083 -85.44897461 405.35229492 C-85.91301209 406.96092832 -85.91301209 406.96092832 -86.38642406 408.60205936 C-88.54884125 416.09835742 -90.71109477 423.59470267 -92.87329102 431.09106445 C-94.10691833 435.3680057 -95.34056197 439.64494225 -96.57421875 443.921875 C-97.03301391 445.51246263 -97.03301391 445.51246263 -97.50107765 447.13518333 C-101.85134806 462.21676251 -106.20343856 477.29781562 -110.55667114 492.37854004 C-113.01997337 500.91208507 -115.4828179 509.44576218 -117.94555855 517.9794693 C-119.96086346 524.96259234 -121.9767877 531.94553619 -123.99316883 538.92834854 C-125.23270039 543.22144919 -126.47164549 547.51471893 -127.71042442 551.8080368 C-128.28627334 553.80333384 -128.86237066 555.79855921 -129.43873024 557.7937088 C-130.22518696 560.51625605 -131.01077378 563.23905282 -131.79614258 565.96191406 C-132.02601364 566.75688293 -132.2558847 567.55185181 -132.49272156 568.37091064 C-133.44442282 571.67345847 -134.36783187 574.97482541 -135.1875 578.3125 C-134.4779526 578.13835855 -133.76840521 577.96421709 -133.03735638 577.78479862 C-122.90844707 575.36770152 -112.7032763 573.50397087 -102.45825195 571.65600586 C-100.47781191 571.29640041 -98.49742222 570.93651757 -96.5170784 570.57638264 C-92.24215165 569.79958587 -87.96687615 569.0247481 -83.6913166 568.25144196 C-76.79153658 567.0034971 -69.89254572 565.75122588 -62.99363708 564.49847412 C-53.04788706 562.69290668 -43.1017674 560.8893882 -33.15539551 559.08724976 C-17.30707295 556.2156632 -1.45958351 553.33949822 14.38769531 550.4621582 C15.3822887 550.28157554 15.3822887 550.28157554 16.39697489 550.09734474 C22.43572655 549.00092121 28.47447209 547.90446402 34.51320064 546.80791324 C41.25938638 545.5829003 48.0055919 544.35799649 54.75185013 543.1333828 C88.2662484 537.04965068 121.77884066 530.95623922 155.28515625 524.828125 C156.17655886 524.66509416 157.06796147 524.50206331 157.98637629 524.33409214 C168.67416832 522.37926468 179.36174669 520.42327044 190.04924357 518.46683002 C207.69527691 515.23659492 225.34166668 512.00830827 242.98828125 508.78125 C244.44724453 508.51444191 244.44724453 508.51444191 245.93568182 508.24224377 C308.78134829 496.74977764 371.63690398 485.31148022 434.49123383 473.86651278 C439.23884796 473.00203255 443.9864592 472.13753643 448.73406982 471.27303696 C464.4145122 468.41776425 480.0949624 465.56253452 495.77542114 462.70735168 C496.54450527 462.56731266 497.31358939 462.42727364 498.1059791 462.28299101 C506.60632224 460.73520388 515.10666876 459.18743528 523.60702133 457.63969994 C579.57648911 447.4488342 635.54514999 437.25354809 691.51284415 427.05294544 C698.79026394 425.72658592 706.06771532 424.4003998 713.34518433 423.0743103 C723.88981412 421.15287479 734.43438048 419.23109147 744.97889972 417.30904937 C747.67139665 416.81828318 750.36390417 416.32757513 753.05641365 415.83687782 C771.09573238 412.54915249 789.13407628 409.25624063 807.16938257 405.94656754 C809.7196857 405.47857744 812.27001616 405.01073659 814.82035446 404.54293823 C821.95508313 403.23414402 829.08973176 401.92493231 836.22371578 400.61208439 C839.05141572 400.09196498 841.87931438 399.57293224 844.70726299 399.05416679 C846.6162717 398.70359015 848.52501776 398.35158426 850.43375397 397.99952698 C878.65151658 392.82710969 906.68189767 393.4212851 931.24853516 409.71142578 C952.41375698 424.52767111 967.71758025 446.62652509 972.4765625 472.20605469 C976.85008187 499.6295468 969.1657684 522.61931137 955.8125 546.3125 C955.32362305 547.18471191 954.83474609 548.05692383 954.33105469 548.95556641 C951.66993113 553.698087 948.99063162 558.4299716 946.30078125 563.15625 C942.59211814 569.68299178 938.94998424 576.24589599 935.3125 582.8125 C930.68209755 591.16672706 926.02384668 599.50364817 921.3125 607.8125 C915.97930908 617.21957649 910.71572888 626.66399321 905.47094727 636.12060547 C898.38113639 648.90138978 891.23193608 661.64870601 884.08300781 674.39648438 C882.346584 677.49325374 880.61061386 680.59027662 878.875 683.6875 C878.01358398 685.22470703 878.01358398 685.22470703 877.13476562 686.79296875 C872.82089397 694.49734154 868.53261713 702.21572003 864.25 709.9375 C859.11871402 719.18843606 853.9413365 728.41155816 848.72412109 737.61425781 C843.92500644 746.08981882 839.1949394 754.60300355 834.47094727 763.12060547 C828.52617618 773.83722941 822.54026111 784.53050966 816.54638672 795.21972656 C813.6331086 800.41620745 810.72297173 805.61444696 807.8125 810.8125 C806.6458482 812.89584166 805.47918154 814.97917499 804.3125 817.0625 C803.735 818.09375 803.1575 819.125 802.5625 820.1875 C797.31249998 829.56250003 797.31249998 829.56250003 795.56274414 832.68701172 C794.39520421 834.77193936 793.22772381 836.85690034 792.06030273 838.94189453 C789.15748248 844.12610899 786.25365533 849.30975417 783.34765625 854.4921875 C777.29189914 865.29453312 771.25641126 876.10763013 765.25 886.9375 C760.11871402 896.18843606 754.9413365 905.41155816 749.72412109 914.61425781 C744.92500644 923.08981882 740.1949394 931.60300355 735.47094727 940.12060547 C729.52617618 950.83722941 723.54026111 961.53050966 717.54638672 972.21972656 C714.63310861 977.41620742 711.72293473 982.61442626 708.8125 987.8125 C705.32573215 994.03991207 701.83837556 1000.26698933 698.34765625 1006.4921875 C692.29189914 1017.29453312 686.25641126 1028.10763013 680.25 1038.9375 C675.11871402 1048.18843606 669.9413365 1057.41155816 664.72412109 1066.61425781 C659.92500644 1075.08981882 655.1949394 1083.60300355 650.47094727 1092.12060547 C644.52617618 1102.83722941 638.54026111 1113.53050966 632.54638672 1124.21972656 C629.63310861 1129.41620742 626.72293473 1134.61442626 623.8125 1139.8125 C620.32573215 1146.03991207 616.83837556 1152.26698933 613.34765625 1158.4921875 C607.29189914 1169.29453312 601.25641126 1180.10763013 595.25 1190.9375 C590.11871402 1200.18843606 584.9413365 1209.41155816 579.72412109 1218.61425781 C574.92500644 1227.08981882 570.1949394 1235.60300355 565.47094727 1244.12060547 C559.52617618 1254.83722941 553.54026111 1265.53050966 547.54638672 1276.21972656 C544.63310861 1281.41620742 541.72293473 1286.61442626 538.8125 1291.8125 C535.32573215 1298.03991207 531.83837556 1304.26698933 528.34765625 1310.4921875 C522.29189914 1321.29453312 516.25641126 1332.10763013 510.25 1342.9375 C505.11871402 1352.18843606 499.9413365 1361.41155816 494.72412109 1370.61425781 C489.92500644 1379.08981882 485.1949394 1387.60300355 480.47094727 1396.12060547 C474.52617618 1406.83722941 468.54026111 1417.53050966 462.54638672 1428.21972656 C459.63310861 1433.41620742 456.72293473 1438.61442626 453.8125 1443.8125 C450.32573215 1450.03991207 446.83837556 1456.26698933 443.34765625 1462.4921875 C437.29189914 1473.29453312 431.25641126 1484.10763013 425.25 1494.9375 C420.11871402 1504.18843606 414.9413365 1513.41155816 409.72412109 1522.61425781 C404.92500644 1531.08981882 400.1949394 1539.60300355 395.47094727 1548.12060547 C389.52617618 1558.83722941 383.54026111 1569.53050966 377.54638672 1580.21972656 C374.63310861 1585.41620742 371.72293473 1590.61442626 368.8125 1595.8125 C365.32573215 1602.03991207 361.83837556 1608.26698933 358.34765625 1614.4921875 C352.29189914 1625.29453312 346.25641126 1636.10763013 340.25 1646.9375 C335.11871402 1656.18843606 329.9413365 1665.41155816 324.72412109 1674.61425781 C319.92500644 1683.08981882 315.1949394 1691.60300355 310.47094727 1700.12060547 C304.52617618 1710.83722941 298.54026111 1721.53050966 292.54638672 1732.21972656 C289.6331086 1737.41620745 286.72297173 1742.61444696 283.8125 1747.8125 C282.6458482 1749.89584166 281.47918154 1751.97917499 280.3125 1754.0625 C279.735 1755.09375 279.1575 1756.125 278.5625 1757.1875 C273.31250002 1766.56249996 273.31250002 1766.56249996 271.56274414 1769.68701172 C270.39520421 1771.77193936 269.22772381 1773.85690034 268.06030273 1775.94189453 C265.15748248 1781.12610899 262.25365533 1786.30975417 259.34765625 1791.4921875 C253.29189914 1802.29453312 247.25641126 1813.10763013 241.25 1823.9375 C236.11871402 1833.18843606 230.9413365 1842.41155816 225.72412109 1851.61425781 C220.92500644 1860.08981882 216.1949394 1868.60300355 211.47094727 1877.12060547 C205.52617618 1887.83722941 199.54026111 1898.53050966 193.54638672 1909.21972656 C190.63310861 1914.41620742 187.72293473 1919.61442626 184.8125 1924.8125 C181.32573215 1931.03991207 177.83837556 1937.26698933 174.34765625 1943.4921875 C168.29189914 1954.29453312 162.25641126 1965.10763013 156.25 1975.9375 C151.11871402 1985.18843606 145.9413365 1994.41155816 140.72412109 2003.61425781 C135.92500644 2012.08981882 131.1949394 2020.60300355 126.47094727 2029.12060547 C120.52617618 2039.83722941 114.54026111 2050.53050966 108.54638672 2061.21972656 C105.63310861 2066.41620742 102.72293473 2071.61442626 99.8125 2076.8125 C96.32573215 2083.03991207 92.83837556 2089.26698933 89.34765625 2095.4921875 C83.29189914 2106.29453312 77.25641126 2117.10763013 71.25 2127.9375 C66.11871402 2137.18843606 60.9413365 2146.41155816 55.72412109 2155.61425781 C50.92500644 2164.08981882 46.1949394 2172.60300355 41.47094727 2181.12060547 C35.52617618 2191.83722941 29.54026111 2202.53050966 23.54638672 2213.21972656 C20.63310861 2218.41620742 17.72293473 2223.61442626 14.8125 2228.8125 C11.32573215 2235.03991207 7.83837556 2241.26698933 4.34765625 2247.4921875 C-1.70810086 2258.29453312 -7.74358874 2269.10763013 -13.75 2279.9375 C-18.88128598 2289.18843606 -24.0586635 2298.41155816 -29.27587891 2307.61425781 C-34.07499356 2316.08981882 -38.8050606 2324.60300355 -43.52905273 2333.12060547 C-49.47382382 2343.83722941 -55.45973889 2354.53050966 -61.45361328 2365.21972656 C-64.36689139 2370.41620742 -67.27706527 2375.61442626 -70.1875 2380.8125 C-73.67426785 2387.03991207 -77.16162444 2393.26698933 -80.65234375 2399.4921875 C-86.70810086 2410.29453312 -92.74358874 2421.10763013 -98.75 2431.9375 C-103.88128598 2441.18843606 -109.0586635 2450.41155816 -114.27587891 2459.61425781 C-119.07499356 2468.08981882 -123.8050606 2476.60300355 -128.52905273 2485.12060547 C-134.47382382 2495.83722941 -140.45973889 2506.53050966 -146.45361328 2517.21972656 C-149.36689139 2522.41620742 -152.27706527 2527.61442626 -155.1875 2532.8125 C-158.67426785 2539.03991207 -162.16162444 2545.26698933 -165.65234375 2551.4921875 C-171.70810086 2562.29453312 -177.74358874 2573.10763013 -183.75 2583.9375 C-188.88128598 2593.18843606 -194.0586635 2602.41155816 -199.27587891 2611.61425781 C-204.07499356 2620.08981882 -208.8050606 2628.60300355 -213.52905273 2637.12060547 C-219.47382382 2647.83722941 -225.45973889 2658.53050966 -231.45361328 2669.21972656 C-234.3668914 2674.41620745 -237.27702827 2679.61444696 -240.1875 2684.8125 C-241.3541518 2686.89584166 -242.52081846 2688.97917499 -243.6875 2691.0625 C-244.265 2692.09375 -244.8425 2693.125 -245.4375 2694.1875 C-250.6875 2703.5625 -250.6875 2703.5625 -252.43725586 2706.68701172 C-253.60479579 2708.77193936 -254.77227619 2710.85690034 -255.93969727 2712.94189453 C-258.84251752 2718.12610899 -261.74634467 2723.30975417 -264.65234375 2728.4921875 C-270.70810086 2739.29453312 -276.74358874 2750.10763013 -282.75 2760.9375 C-287.88128598 2770.18843606 -293.0586635 2779.41155816 -298.27587891 2788.61425781 C-303.07499356 2797.08981882 -307.8050606 2805.60300355 -312.52905273 2814.12060547 C-318.47382382 2824.83722941 -324.45973889 2835.53050966 -330.45361328 2846.21972656 C-333.36689139 2851.41620742 -336.27706527 2856.61442626 -339.1875 2861.8125 C-342.67426785 2868.03991207 -346.16162444 2874.26698933 -349.65234375 2880.4921875 C-355.70810086 2891.29453312 -361.74358874 2902.10763013 -367.75 2912.9375 C-372.88128598 2922.18843606 -378.0586635 2931.41155816 -383.27587891 2940.61425781 C-388.07499356 2949.08981882 -392.8050606 2957.60300355 -397.52905273 2966.12060547 C-403.47382382 2976.83722941 -409.45973889 2987.53050966 -415.45361328 2998.21972656 C-418.36689139 3003.41620742 -421.27706527 3008.61442626 -424.1875 3013.8125 C-427.67426785 3020.03991207 -431.16162444 3026.26698933 -434.65234375 3032.4921875 C-440.70810086 3043.29453312 -446.74358874 3054.10763013 -452.75 3064.9375 C-457.88128598 3074.18843606 -463.0586635 3083.41155816 -468.27587891 3092.61425781 C-473.07499356 3101.08981882 -477.8050606 3109.60300355 -482.52905273 3118.12060547 C-488.47382382 3128.83722941 -494.45973889 3139.53050966 -500.45361328 3150.21972656 C-503.36689139 3155.41620742 -506.27706527 3160.61442626 -509.1875 3165.8125 C-512.67426785 3172.03991207 -516.16162444 3178.26698933 -519.65234375 3184.4921875 C-525.70810086 3195.29453312 -531.74358874 3206.10763013 -537.75 3216.9375 C-542.88128598 3226.18843606 -548.0586635 3235.41155816 -553.27587891 3244.61425781 C-558.07499356 3253.08981882 -562.8050606 3261.60300355 -567.52905273 3270.12060547 C-573.47382382 3280.83722941 -579.45973889 3291.53050966 -585.45361328 3302.21972656 C-588.36689139 3307.41620742 -591.27706527 3312.61442626 -594.1875 3317.8125 C-597.67426785 3324.03991207 -601.16162444 3330.26698933 -604.65234375 3336.4921875 C-610.70810086 3347.29453312 -616.74358874 3358.10763013 -622.75 3368.9375 C-627.88128598 3378.18843606 -633.0586635 3387.41155816 -638.27587891 3396.61425781 C-643.07499356 3405.08981882 -647.8050606 3413.60300355 -652.52905273 3422.12060547 C-658.47382382 3432.83722941 -664.45973889 3443.53050966 -670.45361328 3454.21972656 C-673.36689139 3459.41620742 -676.27706527 3464.61442626 -679.1875 3469.8125 C-682.67426785 3476.03991207 -686.16162444 3482.26698933 -689.65234375 3488.4921875 C-695.70810086 3499.29453312 -701.74358874 3510.10763013 -707.75 3520.9375 C-712.88128598 3530.18843606 -718.0586635 3539.41155816 -723.27587891 3548.61425781 C-727.43021054 3555.9510884 -731.53511637 3563.31457338 -735.625 3570.6875 C-765.55893072 3624.62570996 -765.55893072 3624.62570996 -774.1875 3634.3125 C-774.91195313 3635.13105469 -775.63640625 3635.94960937 -776.3828125 3636.79296875 C-792.11511369 3653.53774477 -813.96220371 3663.67578184 -836.8984375 3664.6953125 C-850.05880321 3665.0239209 -862.70238298 3664.75030761 -875.1875 3660.3125 C-876.19079346 3659.95841064 -876.19079346 3659.95841064 -877.21435547 3659.59716797 C-898.96935396 3651.61089515 -915.7175236 3636.26153714 -927.1875 3616.3125 C-927.74244141 3615.35456543 -928.29738281 3614.39663086 -928.86914062 3613.40966797 C-932.61175358 3606.93651515 -936.31457742 3600.44165565 -939.99882507 3593.93518066 C-942.41609167 3589.66759021 -944.84573553 3585.40730686 -947.28515625 3581.15234375 C-953.68467579 3569.98718759 -960.04742217 3558.8039251 -966.3125 3547.5625 C-971.40964598 3538.41804429 -976.63748746 3529.35890908 -981.93798828 3520.33105469 C-986.71673087 3512.17131504 -991.33926686 3503.93041893 -995.9375 3495.66796875 C-999.93714452 3488.49896305 -1004.03098044 3481.39157237 -1008.1875 3474.3125 C-1013.56029449 3465.16195939 -1018.7802244 3455.93581625 -1023.93969727 3446.66357422 C-1027.91565635 3439.53621733 -1031.98913998 3432.47310908 -1036.125 3425.4375 C-1041.76649163 3415.83684496 -1047.19962614 3406.13297748 -1052.57958984 3396.38378906 C-1057.25993587 3387.92498188 -1062.08936334 3379.5641336 -1066.98828125 3371.23046875 C-1071.75443713 3363.10438766 -1076.35947811 3354.89490211 -1080.93994141 3346.66308594 C-1084.91586053 3339.5359156 -1088.98923218 3332.47295222 -1093.125 3325.4375 C-1098.76649163 3315.83684496 -1104.19962614 3306.13297748 -1109.57958984 3296.38378906 C-1114.25993587 3287.92498188 -1119.08936334 3279.5641336 -1123.98828125 3271.23046875 C-1128.14650268 3264.14088852 -1132.1911613 3256.99443905 -1136.1875 3249.8125 C-1140.76316642 3241.59046975 -1145.42337865 3233.4267887 -1150.1875 3225.3125 C-1155.50589275 3216.25065741 -1160.68621109 3207.12057301 -1165.80126953 3197.94262695 C-1170.175016 3190.10153143 -1174.60237167 3182.29219078 -1179.0625 3174.5 C-1179.56254547 3173.62631775 -1179.56254547 3173.62631775 -1180.07269287 3172.73498535 C-1181.76623714 3169.77656468 -1183.46057826 3166.81860134 -1185.15527344 3163.86083984 C-1188.17118289 3158.59628943 -1191.18010211 3153.327745 -1194.18951416 3148.05947876 C-1195.85521971 3145.14365361 -1197.52138314 3142.22809013 -1199.1875 3139.3125 C-1199.85416886 3138.14583459 -1200.52083552 3136.97916792 -1201.1875 3135.8125 C-1201.6825 3134.94625 -1201.6825 3134.94625 -1202.1875 3134.0625 C-1205.18749997 3128.81250005 -1205.18749997 3128.81250005 -1206.18746948 3127.06254578 C-1206.85422911 3125.89572151 -1207.5209975 3124.72890226 -1208.18777466 3123.56208801 C-1209.85309088 3120.64787354 -1211.51825537 3117.73357258 -1213.18310547 3114.8190918 C-1216.19904606 3109.53974336 -1219.21612341 3104.26106056 -1222.23880005 3098.98556519 C-1223.9307784 3096.03246984 -1225.62187464 3093.07887011 -1227.3125 3090.125 C-1227.64505798 3089.54399536 -1227.97761597 3088.96299072 -1228.32025146 3088.36437988 C-1233.03419898 3080.12464849 -1237.69117995 3071.85453158 -1242.3125 3063.5625 C-1247.40964598 3054.41804429 -1252.63748746 3045.35890908 -1257.93798828 3036.33105469 C-1262.71673087 3028.17131504 -1267.33926686 3019.93041893 -1271.9375 3011.66796875 C-1275.93714452 3004.49896305 -1280.03098044 2997.39157237 -1284.1875 2990.3125 C-1289.56029449 2981.16195939 -1294.7802244 2971.93581625 -1299.93969727 2962.66357422 C-1303.91565635 2955.53621733 -1307.98913998 2948.47310908 -1312.125 2941.4375 C-1317.76649163 2931.83684496 -1323.19962614 2922.13297748 -1328.57958984 2912.38378906 C-1333.25993587 2903.92498188 -1338.08936334 2895.5641336 -1342.98828125 2887.23046875 C-1347.75443713 2879.10438766 -1352.35947811 2870.89490211 -1356.93994141 2862.66308594 C-1360.91586053 2855.5359156 -1364.98923218 2848.47295222 -1369.125 2841.4375 C-1374.76649163 2831.83684496 -1380.19962614 2822.13297748 -1385.57958984 2812.38378906 C-1390.25993587 2803.92498188 -1395.08936334 2795.5641336 -1399.98828125 2787.23046875 C-1404.14650268 2780.14088852 -1408.1911613 2772.99443905 -1412.1875 2765.8125 C-1416.76316642 2757.59046975 -1421.42337865 2749.4267887 -1426.1875 2741.3125 C-1431.50589275 2732.25065741 -1436.68621109 2723.12057301 -1441.80126953 2713.94262695 C-1446.175016 2706.10153143 -1450.60237167 2698.29219078 -1455.0625 2690.5 C-1455.56254547 2689.62631775 -1455.56254547 2689.62631775 -1456.07269287 2688.73498535 C-1457.76623714 2685.77656468 -1459.46057826 2682.81860134 -1461.15527344 2679.86083984 C-1464.17118289 2674.59628943 -1467.18010211 2669.327745 -1470.18951416 2664.05947876 C-1471.85521971 2661.14365361 -1473.52138314 2658.22809013 -1475.1875 2655.3125 C-1475.85416886 2654.14583459 -1476.52083552 2652.97916792 -1477.1875 2651.8125 C-1477.6825 2650.94625 -1477.6825 2650.94625 -1478.1875 2650.0625 C-1481.18749992 2644.81250013 -1481.18749992 2644.81250013 -1482.18746948 2643.06254578 C-1482.85422911 2641.89572151 -1483.5209975 2640.72890226 -1484.18777466 2639.56208801 C-1485.85309088 2636.64787354 -1487.51825537 2633.73357258 -1489.18310547 2630.8190918 C-1492.19904606 2625.53974336 -1495.21612341 2620.26106056 -1498.23880005 2614.98556519 C-1499.9307784 2612.03246984 -1501.62187464 2609.07887011 -1503.3125 2606.125 C-1503.64505798 2605.54399536 -1503.97761597 2604.96299072 -1504.32025146 2604.36437988 C-1509.03419898 2596.12464849 -1513.69117995 2587.85453158 -1518.3125 2579.5625 C-1523.40964598 2570.41804429 -1528.63748746 2561.35890908 -1533.93798828 2552.33105469 C-1538.71673087 2544.17131504 -1543.33926686 2535.93041893 -1547.9375 2527.66796875 C-1551.93714452 2520.49896305 -1556.03098044 2513.39157237 -1560.1875 2506.3125 C-1565.56029449 2497.16195939 -1570.7802244 2487.93581625 -1575.93969727 2478.66357422 C-1579.91565635 2471.53621733 -1583.98913998 2464.47310908 -1588.125 2457.4375 C-1593.76649163 2447.83684496 -1599.19962614 2438.13297748 -1604.57958984 2428.38378906 C-1609.25993587 2419.92498188 -1614.08936334 2411.5641336 -1618.98828125 2403.23046875 C-1623.75443713 2395.10438766 -1628.35947811 2386.89490211 -1632.93994141 2378.66308594 C-1636.91586053 2371.5359156 -1640.98923218 2364.47295222 -1645.125 2357.4375 C-1650.76649163 2347.83684496 -1656.19962614 2338.13297748 -1661.57958984 2328.38378906 C-1666.25993587 2319.92498188 -1671.08936334 2311.5641336 -1675.98828125 2303.23046875 C-1680.14650268 2296.14088852 -1684.1911613 2288.99443905 -1688.1875 2281.8125 C-1692.76316642 2273.59046975 -1697.42337865 2265.4267887 -1702.1875 2257.3125 C-1707.50589275 2248.25065741 -1712.68621109 2239.12057301 -1717.80126953 2229.94262695 C-1722.175016 2222.10153143 -1726.60237167 2214.29219078 -1731.0625 2206.5 C-1731.39586365 2205.91754517 -1731.72922729 2205.33509033 -1732.07269287 2204.73498535 C-1733.76623714 2201.77656468 -1735.46057826 2198.81860134 -1737.15527344 2195.86083984 C-1740.17118289 2190.59628943 -1743.18010211 2185.327745 -1746.18951416 2180.05947876 C-1747.85521971 2177.14365361 -1749.52138314 2174.22809013 -1751.1875 2171.3125 C-1751.85416886 2170.14583459 -1752.52083552 2168.97916792 -1753.1875 2167.8125 C-1753.5175 2167.235 -1753.8475 2166.6575 -1754.1875 2166.0625 C-1757.18750003 2160.81249994 -1757.18750003 2160.81249994 -1758.18746948 2159.06254578 C-1758.85422911 2157.89572151 -1759.5209975 2156.72890226 -1760.18777466 2155.56208801 C-1761.85309088 2152.64787354 -1763.51825537 2149.73357258 -1765.18310547 2146.8190918 C-1768.19904606 2141.53974336 -1771.21612341 2136.26106056 -1774.23880005 2130.98556519 C-1775.9307784 2128.03246984 -1777.62187464 2125.07887011 -1779.3125 2122.125 C-1779.64505798 2121.54399536 -1779.97761597 2120.96299072 -1780.32025146 2120.36437988 C-1785.03419898 2112.12464849 -1789.69117995 2103.85453158 -1794.3125 2095.5625 C-1799.40964598 2086.41804429 -1804.63748746 2077.35890908 -1809.93798828 2068.33105469 C-1814.71673087 2060.17131504 -1819.33926686 2051.93041893 -1823.9375 2043.66796875 C-1827.93714452 2036.49896305 -1832.03098044 2029.39157237 -1836.1875 2022.3125 C-1841.56029449 2013.16195939 -1846.7802244 2003.93581625 -1851.93969727 1994.66357422 C-1855.91565635 1987.53621733 -1859.98913998 1980.47310908 -1864.125 1973.4375 C-1869.76649163 1963.83684496 -1875.19962614 1954.13297748 -1880.57958984 1944.38378906 C-1885.25866362 1935.92728121 -1890.08739703 1927.56909066 -1894.98388672 1919.23706055 C-1899.79348805 1911.03496046 -1904.4525982 1902.75436462 -1909.08276367 1894.44995117 C-1914.17396428 1885.32082814 -1919.34801508 1876.24139332 -1924.54785156 1867.17382812 C-1927.34324926 1862.29561773 -1930.13120875 1857.41315746 -1932.91998291 1852.53115845 C-1934.628655 1849.54013672 -1936.33778974 1846.54937939 -1938.046875 1843.55859375 C-1938.73893448 1842.34749474 -1939.43099177 1841.13639448 -1940.12304688 1839.92529297 C-1940.46489014 1839.32706726 -1940.8067334 1838.72884155 -1941.15893555 1838.11248779 C-1960.18750001 1804.81249998 -1960.18750001 1804.81249998 -1961.18746948 1803.06254578 C-1961.85422911 1801.89572151 -1962.5209975 1800.72890226 -1963.18777466 1799.56208801 C-1964.85309088 1796.64787354 -1966.51825537 1793.73357258 -1968.18310547 1790.8190918 C-1971.19904606 1785.53974336 -1974.21612341 1780.26106056 -1977.23880005 1774.98556519 C-1978.9307784 1772.03246984 -1980.62187464 1769.07887011 -1982.3125 1766.125 C-1982.64505798 1765.54399536 -1982.97761597 1764.96299072 -1983.32025146 1764.36437988 C-1988.03419898 1756.12464849 -1992.69117995 1747.85453158 -1997.3125 1739.5625 C-2002.40964598 1730.41804429 -2007.63748746 1721.35890908 -2012.93798828 1712.33105469 C-2017.71673087 1704.17131504 -2022.33926686 1695.93041893 -2026.9375 1687.66796875 C-2030.93714452 1680.49896305 -2035.03098044 1673.39157237 -2039.1875 1666.3125 C-2044.56029449 1657.16195939 -2049.7802244 1647.93581625 -2054.93969727 1638.66357422 C-2058.91565635 1631.53621733 -2062.98913998 1624.47310908 -2067.125 1617.4375 C-2072.76649163 1607.83684496 -2078.19962614 1598.13297748 -2083.57958984 1588.38378906 C-2088.25993587 1579.92498188 -2093.08936334 1571.5641336 -2097.98828125 1563.23046875 C-2102.75443713 1555.10438766 -2107.35947811 1546.89490211 -2111.93994141 1538.66308594 C-2115.91586053 1531.5359156 -2119.98923218 1524.47295222 -2124.125 1517.4375 C-2129.76649163 1507.83684496 -2135.19962614 1498.13297748 -2140.57958984 1488.38378906 C-2145.25993587 1479.92498188 -2150.08936334 1471.5641336 -2154.98828125 1463.23046875 C-2159.14650268 1456.14088852 -2163.1911613 1448.99443905 -2167.1875 1441.8125 C-2171.76316642 1433.59046975 -2176.42337865 1425.4267887 -2181.1875 1417.3125 C-2186.50589275 1408.25065741 -2191.68621109 1399.12057301 -2196.80126953 1389.94262695 C-2201.175016 1382.10153143 -2205.60237167 1374.29219078 -2210.0625 1366.5 C-2210.39586365 1365.91754517 -2210.72922729 1365.33509033 -2211.07269287 1364.73498535 C-2212.76623714 1361.77656468 -2214.46057826 1358.81860134 -2216.15527344 1355.86083984 C-2219.17118289 1350.59628943 -2222.18010211 1345.327745 -2225.18951416 1340.05947876 C-2226.85521971 1337.14365361 -2228.52138314 1334.22809013 -2230.1875 1331.3125 C-2230.85416886 1330.14583459 -2231.52083552 1328.97916792 -2232.1875 1327.8125 C-2232.5175 1327.235 -2232.8475 1326.6575 -2233.1875 1326.0625 C-2236.18749997 1320.81250005 -2236.18749997 1320.81250005 -2237.18746948 1319.06254578 C-2237.85422911 1317.89572151 -2238.5209975 1316.72890226 -2239.18777466 1315.56208801 C-2240.85309088 1312.64787354 -2242.51825537 1309.73357258 -2244.18310547 1306.8190918 C-2247.19904606 1301.53974336 -2250.21612341 1296.26106056 -2253.23880005 1290.98556519 C-2254.9307784 1288.03246984 -2256.62187464 1285.07887011 -2258.3125 1282.125 C-2258.64505798 1281.54399536 -2258.97761597 1280.96299072 -2259.32025146 1280.36437988 C-2264.03419898 1272.12464849 -2268.69117995 1263.85453158 -2273.3125 1255.5625 C-2278.40964598 1246.41804429 -2283.63748746 1237.35890908 -2288.93798828 1228.33105469 C-2293.71673087 1220.17131504 -2298.33926686 1211.93041893 -2302.9375 1203.66796875 C-2306.93714452 1196.49896305 -2311.03098044 1189.39157237 -2315.1875 1182.3125 C-2320.56029449 1173.16195939 -2325.7802244 1163.93581625 -2330.93969727 1154.66357422 C-2334.91565635 1147.53621733 -2338.98913998 1140.47310908 -2343.125 1133.4375 C-2348.76649163 1123.83684496 -2354.19962614 1114.13297748 -2359.57958984 1104.38378906 C-2364.25993587 1095.92498188 -2369.08936334 1087.5641336 -2373.98828125 1079.23046875 C-2378.75443713 1071.10438766 -2383.35947811 1062.89490211 -2387.93994141 1054.66308594 C-2391.91586053 1047.5359156 -2395.98923218 1040.47295222 -2400.125 1033.4375 C-2405.76649163 1023.83684496 -2411.19962614 1014.13297748 -2416.57958984 1004.38378906 C-2421.25993587 995.92498188 -2426.08936334 987.5641336 -2430.98828125 979.23046875 C-2435.14650268 972.14088852 -2439.1911613 964.99443905 -2443.1875 957.8125 C-2447.76316642 949.59046975 -2452.42337865 941.4267887 -2457.1875 933.3125 C-2462.50589275 924.25065741 -2467.68621109 915.12057301 -2472.80126953 905.94262695 C-2477.175016 898.10153143 -2481.60237167 890.29219078 -2486.0625 882.5 C-2486.39586365 881.91754517 -2486.72922729 881.33509033 -2487.07269287 880.73498535 C-2488.76623714 877.77656468 -2490.46057826 874.81860134 -2492.15527344 871.86083984 C-2495.17118289 866.59628943 -2498.18010211 861.327745 -2501.18951416 856.05947876 C-2502.85521971 853.14365361 -2504.52138314 850.22809013 -2506.1875 847.3125 C-2506.85416886 846.14583459 -2507.52083552 844.97916792 -2508.1875 843.8125 C-2508.5175 843.235 -2508.8475 842.6575 -2509.1875 842.0625 C-2512.1875 836.8125 -2512.1875 836.8125 -2513.18746948 835.06254578 C-2513.85422911 833.89572151 -2514.5209975 832.72890226 -2515.18777466 831.56208801 C-2516.85309088 828.64787354 -2518.51825537 825.73357258 -2520.18310547 822.8190918 C-2523.19904606 817.53974336 -2526.21612341 812.26106056 -2529.23880005 806.98556519 C-2530.9307784 804.03246984 -2532.62187464 801.07887011 -2534.3125 798.125 C-2534.64505798 797.54399536 -2534.97761597 796.96299072 -2535.32025146 796.36437988 C-2540.03419898 788.12464849 -2544.69117995 779.85453158 -2549.3125 771.5625 C-2554.40964598 762.41804429 -2559.63748746 753.35890908 -2564.93798828 744.33105469 C-2569.71673087 736.17131504 -2574.33926686 727.93041893 -2578.9375 719.66796875 C-2582.93714452 712.49896305 -2587.03098044 705.39157237 -2591.1875 698.3125 C-2596.56029449 689.16195939 -2601.7802244 679.93581625 -2606.93969727 670.66357422 C-2610.91565635 663.53621733 -2614.98913998 656.47310908 -2619.125 649.4375 C-2624.76649163 639.83684496 -2630.19962614 630.13297748 -2635.57958984 620.38378906 C-2640.25993587 611.92498188 -2645.08936334 603.5641336 -2649.98828125 595.23046875 C-2654.74990974 587.11210666 -2659.35475957 578.91262718 -2663.92456055 570.68505859 C-2667.44535524 564.36492328 -2671.05645496 558.10837599 -2674.74462891 551.88452148 C-2691.09727649 524.25017223 -2701.16701015 497.69875988 -2693.69238281 465.27001953 C-2692.35155409 460.07139057 -2690.38334006 455.1998126 -2688.1875 450.3125 C-2687.75695313 449.31863281 -2687.32640625 448.32476562 -2686.8828125 447.30078125 C-2677.05046044 426.0529018 -2658.88605381 409.84123703 -2637.5859375 400.55859375 C-2620.04052863 394.12527716 -2602.53825729 392.96945925 -2584.18237305 395.88305664 C-2583.06713855 396.05771737 -2581.95190405 396.2323781 -2580.80287457 396.41233158 C-2564.34517038 399.03384136 -2547.94946998 402.0269 -2531.54784417 404.97472453 C-2526.54836561 405.8725176 -2521.54821238 406.7665389 -2516.54814148 407.661026 C-2507.90233988 409.20821147 -2499.25694064 410.75762805 -2490.61181641 412.30859375 C-2477.94106014 414.58173504 -2465.26963932 416.85115438 -2452.59803891 419.1195848 C-2446.65326303 420.18380294 -2440.70851025 421.24815006 -2434.76376343 422.31253052 C-2433.57612943 422.52517079 -2432.38849543 422.73781107 -2431.16487253 422.95689499 C-2422.65723085 424.48022605 -2414.14970712 426.00421477 -2405.64224243 427.52853394 C-2373.67291581 433.25657656 -2341.70238718 438.9778479 -2309.73046875 444.69140625 C-2308.67356346 444.88028435 -2307.61665818 445.06916246 -2306.52772546 445.26376414 C-2296.95291635 446.97485872 -2287.37809012 448.68585741 -2277.80323887 450.39671612 C-2262.82096584 453.07378907 -2247.83879159 455.75141417 -2232.85668945 458.42944336 C-2231.25369793 458.71597548 -2231.25369793 458.71597548 -2229.61832273 459.00829613 C-2224.21809468 459.97358092 -2218.81786827 460.93887486 -2213.41764259 461.9041729 C-2203.71049199 463.63933541 -2194.0033269 465.37441692 -2184.29616296 467.10950482 C-2178.90577472 468.07299992 -2173.51538741 469.03650022 -2168.125 470 C-2165.96875 470.38541669 -2163.8125 470.77083336 -2161.65625 471.15625 C-1941.71874568 510.46875077 -1941.71874568 510.46875077 -1938.48437768 511.04687452 C-1936.32811874 511.43229279 -1934.1718598 511.81771104 -1932.01560086 512.20312929 C-1926.62511262 513.16664648 -1921.23462441 514.13016379 -1915.84413624 515.09368134 C-1906.13937813 516.82834873 -1896.43461988 518.56301532 -1886.72986084 520.29767752 C-1881.33707835 521.26160214 -1875.94429598 522.22552745 -1870.55151367 523.18945312 C-1869.48382826 523.38029511 -1868.41614285 523.5711371 -1867.31610334 523.76776218 C-1852.25495583 526.4598481 -1837.19381519 529.15197247 -1822.13267887 531.84412098 C-1812.45954788 533.57317266 -1802.78641486 535.302213 -1793.11328125 537.03125 C-1791.51649831 537.3166694 -1791.51649831 537.3166694 -1789.88745713 537.60785484 C-1759.21852278 543.08981527 -1728.54948795 548.57121318 -1697.88037354 554.05216616 C-1676.87855501 557.80545774 -1655.87676704 561.55892033 -1634.875 565.3125 C-1633.80182573 565.50430454 -1632.72865146 565.69610908 -1631.62295675 565.89372587 C-1545.14153854 581.35027458 -1458.66348253 596.82557059 -1372.1875 612.3125 C-1370.71452662 594.16201645 -1369.51559205 576.00414122 -1368.46291304 557.82485843 C-1368.24929069 554.14536659 -1368.0328221 550.46604197 -1367.81668091 546.78669739 C-1367.44432509 540.44281178 -1367.07350783 534.09883786 -1366.7036438 527.75480652 C-1366.11838844 517.71869381 -1365.52818493 507.68287473 -1364.93725586 497.64709473 C-1364.73424426 494.19832752 -1364.53126383 490.74955848 -1364.32829285 487.30078888 C-1364.25226525 486.00900314 -1364.25226525 486.00900314 -1364.17470175 484.69112071 C-1363.60100977 474.94240276 -1363.02830722 465.19362677 -1362.45605469 455.44482422 C-1362.37779152 454.11157902 -1362.37779152 454.11157902 -1362.29794729 452.75139958 C-1361.44961417 438.29757892 -1360.60488521 423.84354921 -1359.76103723 409.38946611 C-1358.89146356 394.49698797 -1358.01649924 379.60483274 -1357.13692951 364.71294165 C-1356.59607648 355.5524226 -1356.05962372 346.39166734 -1355.52890801 337.2305553 C-1355.16548751 330.96366182 -1354.79695352 324.69708222 -1354.42442012 318.43072391 C-1354.20995324 314.82047554 -1353.99775787 311.2101319 -1353.79175186 307.59939003 C-1353.56809226 303.68017473 -1353.3334925 299.76165669 -1353.09790039 295.84313965 C-1353.00362967 294.14499894 -1353.00362967 294.14499894 -1352.90745449 292.41255236 C-1351.9413871 276.77616357 -1348.24330615 262.49886277 -1336.14854431 251.65458679 C-1325.86659004 243.52190563 -1314.29910965 240.74366603 -1301.71484375 238.38671875 C-1299.97501964 238.0449062 -1298.23555369 237.7012665 -1296.49641418 237.35598755 C-1291.72405405 236.4138266 -1286.94711238 235.49709942 -1282.16905212 234.5843544 C-1276.9349087 233.57957701 -1271.70554935 232.55044089 -1266.47558594 231.52416992 C-1257.27567906 229.72201332 -1248.07307055 227.93423727 -1238.86865234 226.15527344 C-1223.92450139 223.26626748 -1208.98727656 220.34235144 -1194.05078125 217.4140625 C-1188.78268181 216.38167047 -1183.51452905 215.34955084 -1178.24633789 214.31762695 C-1177.5826266 214.18761264 -1176.91891532 214.05759833 -1176.23509157 213.92364419 C-1165.86777498 211.89293516 -1155.49949673 209.86718495 -1145.13061523 207.84448242 C-1144.07136988 207.63784535 -1144.07136988 207.63784535 -1142.99072564 207.42703378 C-1140.10791136 206.86466336 -1137.22509325 206.30231256 -1134.34227258 205.73997492 C-1106.59451649 200.32729024 -1078.85023138 194.89715823 -1051.109375 189.44921875 C-1049.84010902 189.19995427 -1049.84010902 189.19995427 -1048.5452013 188.94565415 C-1038.20059531 186.91408324 -1027.85609933 184.88195251 -1017.51164031 182.8496334 C-1001.00792447 179.60725258 -984.50404912 176.36568398 -968 173.125 C-967.14961749 172.95801975 -966.29923498 172.7910395 -965.42308331 172.61899924 C-930.181902 165.69925432 -894.93552383 158.8062606 -859.68742371 151.92185974 C-849.58319296 149.94836453 -839.47902022 147.97457279 -829.375 146 C-828.69884895 145.86786354 -828.02269791 145.73572708 -827.32605743 145.59958649 C-803.33998271 140.91188813 -779.35688165 136.2090995 -755.375 131.5 C-754.52490105 131.33307396 -753.67480209 131.16614792 -752.79894257 130.99416351 C-739.76169743 128.43410596 -726.72458845 125.87335531 -713.6875 123.3125 C-663.69207506 113.49197529 -613.69337284 103.68865562 -563.68742371 93.92185974 C-553.58319296 91.94836453 -543.47902022 89.97457279 -533.375 88 C-532.69884895 87.86786354 -532.02269791 87.73572708 -531.32605743 87.59958649 C-507.33998271 82.91188813 -483.35688165 78.2090995 -459.375 73.5 C-458.52490105 73.33307396 -457.67480209 73.16614792 -456.79894257 72.99416351 C-443.76169743 70.43410596 -430.72458845 67.87335531 -417.6875 65.3125 C-338.75666064 49.80823618 -338.75666064 49.80823618 -302 42.625 C-300.98403362 42.42645011 -300.98403362 42.42645011 -299.94754267 42.22388911 C-287.23507862 39.73956517 -274.52236247 37.25653221 -261.80950928 34.77420044 C-253.82864308 33.21582463 -245.84786148 31.65701615 -237.8671875 30.09765625 C-237.19893747 29.96708745 -236.53068744 29.83651865 -235.8421874 29.70199323 C-211.16205611 24.87946478 -186.48632578 20.03463256 -161.81161022 15.18447828 C-158.01023132 14.43729907 -154.20882556 13.69025657 -150.40741849 12.94322073 C-145.6837114 12.01493397 -140.96001754 11.08657983 -136.23632812 10.15820312 C-135.30419794 9.97500605 -134.37206775 9.79180898 -133.41169119 9.60306048 C-122.28509288 7.41620971 -111.15875842 5.2280248 -100.0328027 3.03790706 C-93.08295812 1.66992239 -86.13287146 0.30317229 -79.18260181 -1.0626511 C-74.36469944 -2.00950971 -69.54709984 -2.95788859 -64.72973132 -3.90745938 C-61.78466519 -4.48757705 -58.83930421 -5.06618608 -55.89385509 -5.64435577 C-53.90373045 -6.0354615 -51.91395952 -6.42836581 -49.92420197 -6.82133484 C-32.0786992 -10.31942277 -15.33192197 -11.66710552 0 0 Z " fill="#8C72FE" transform="translate(2782.1875,22.6875)"/>
<path d="M0 0 C9.89807339 8.42422234 16.76030166 19.42422694 18.15625 32.54296875 C18.49556543 41.1361321 17.50260665 48.53577781 15.04296875 56.76953125 C14.58418587 58.35616577 14.58418587 58.35616577 14.11613464 59.97485352 C13.41610075 62.39456413 12.71162499 64.81299245 12.00360107 67.2303772 C10.70259362 71.67714184 9.42877904 76.13154676 8.15673828 80.58666992 C5.27966807 90.65785457 2.38789785 100.72477897 -0.50635147 110.79103851 C-1.38870062 113.86015553 -2.27073419 116.92936309 -3.15267944 119.99859619 C-14.70632904 160.2049249 -26.30510406 200.398191 -37.91383553 240.58864403 C-44.6551946 263.9279196 -51.38870402 287.26945757 -58.12115097 310.61130524 C-59.69245533 316.05908033 -61.263835 321.50683371 -62.83520508 326.95458984 C-65.04293957 334.60857989 -67.25064225 342.26257912 -69.45831203 349.91658783 C-73.22472644 362.97476256 -76.99135965 376.03287417 -80.75813675 389.09094429 C-81.69615437 392.34276226 -82.63413757 395.59459016 -83.57211304 398.84642029 C-86.36781665 408.53860418 -89.16374811 418.23072203 -91.9609127 427.9224844 C-93.50535898 433.27379553 -95.04960579 438.6251642 -96.59375 443.9765625 C-97.05345625 445.56970119 -97.05345625 445.56970119 -97.52244949 447.19502449 C-101.83257491 462.13345534 -106.13329041 477.07457095 -110.42773438 492.01751709 C-112.8455028 500.43022962 -115.26572776 508.84223489 -117.68649292 517.25408554 C-119.6548397 524.09470005 -121.61993225 530.93623796 -123.5825119 537.77850914 C-124.79795153 542.01295061 -126.01657598 546.24647083 -127.23603821 550.4797554 C-127.79539862 552.42394604 -128.35347411 554.36850696 -128.91007996 556.31348801 C-131.80002464 566.40951346 -134.79913825 576.44083911 -138.19693756 586.37916374 C-140.32089212 592.5965241 -142.05614209 598.88608895 -143.6875 605.25 C-145.67858778 612.83551585 -147.75230793 620.35726601 -150.1875 627.8125 C-152.56587399 635.10565345 -154.60733086 642.45763189 -156.5625 649.875 C-158.90520148 658.75644162 -161.43713854 667.54878213 -164.1875 676.3125 C-166.89160438 684.93207567 -169.38794476 693.57629015 -171.6875 702.3125 C-174.27670199 712.149103 -177.16271617 721.85801668 -180.20703125 731.5625 C-182.55385345 739.10132654 -184.67777177 746.6773681 -186.6875 754.3125 C-189.27670199 764.149103 -192.16271617 773.85801668 -195.20703125 783.5625 C-197.55385345 791.10132654 -199.67777177 798.6773681 -201.6875 806.3125 C-204.27338357 816.13649603 -207.15360861 825.83368692 -210.19604492 835.52514648 C-212.98756945 844.48805305 -215.47075537 853.51703508 -217.84179688 862.59960938 C-219.02621908 867.11539915 -220.23753781 871.5333292 -221.85546875 875.9140625 C-223.52625014 880.80969969 -223.72427469 885.48220168 -223.6875 890.625 C-223.68000732 892.00703613 -223.68000732 892.00703613 -223.67236328 893.41699219 C-223.48125844 900.90566609 -222.03087259 906.81223132 -218.1875 913.3125 C-217.72988281 914.12847656 -217.27226562 914.94445312 -216.80078125 915.78515625 C-210.73262858 925.74357665 -201.5823388 932.19471317 -190.52856445 935.86303711 C-175.13980838 938.81753705 -159.25031173 934.79721908 -144.25 931.625 C-141.97268232 931.15779664 -139.69492639 930.69272469 -137.41674805 930.22973633 C-134.05072437 929.54565872 -130.68494267 928.86067607 -127.32051086 928.16880798 C-118.12774546 926.28046965 -108.91720351 924.57937992 -99.66235352 923.02270508 C-92.75538323 921.83891122 -85.90662807 920.43007689 -79.05078125 918.984375 C-67.2107455 916.49086556 -55.33553443 914.21999774 -43.44073486 912.0045166 C-37.63120629 910.92194099 -31.82331501 909.83067171 -26.015625 908.73828125 C-24.88689972 908.5259787 -23.75817444 908.31367615 -22.59524536 908.09494019 C-11.67072522 906.03512277 -0.77146028 903.86335903 10.125 901.66015625 C26.34204721 898.38118311 42.59386078 895.27833032 58.859375 892.25 C62.88544223 891.50013714 66.91149567 890.75020052 70.9375 890 C72.470009 889.7144928 72.470009 889.7144928 74.03347778 889.42321777 C89.84773851 886.47290597 105.6284546 883.37885091 121.39608765 880.18948364 C137.42891194 876.94920014 153.49255611 873.90167259 169.58325195 870.96264648 C171.26257637 870.65502427 172.94185827 870.34716982 174.62109375 870.0390625 C175.41895798 869.8930661 176.2168222 869.7470697 177.03886414 869.59664917 C181.90334973 868.69661554 186.73023686 867.69033201 191.55859375 866.61328125 C205.48786449 863.57727126 217.53861802 865.08572557 230.0625 872.0625 C240.55775579 878.81304852 248.64882115 888.81639305 251.44628906 901.17041016 C252.09223595 904.9487688 252.22155827 908.67300711 252.25 912.5 C252.28287109 913.26119141 252.31574219 914.02238281 252.34960938 914.80664062 C252.48713355 929.92179724 242.10889606 945.12743518 235.51953125 958.2265625 C234.4067318 960.44909572 233.29441048 962.6718684 232.18254089 964.89486694 C229.85703675 969.54129085 227.52764184 974.18573436 225.19506836 978.82861328 C222.23242612 984.72573036 219.27664738 990.62625163 216.32347584 996.52811623 C213.47466971 1002.22052277 210.62214889 1007.91106535 207.76953125 1013.6015625 C207.23903482 1014.66067463 206.7085384 1015.71978676 206.16196632 1016.81099319 C204.6266861 1019.87452864 203.08874179 1022.93671262 201.55004883 1025.99853516 C200.90042931 1027.29609741 200.90042931 1027.29609741 200.23768616 1028.61987305 C197.70324864 1033.65552818 195.10836263 1038.65588258 192.46903658 1043.63713151 C186.92844361 1054.10308383 181.57350764 1064.65334335 176.28723145 1075.24951172 C175.37431944 1077.07561662 174.46122885 1078.90163225 173.54797792 1080.72756767 C171.06833608 1085.68655907 168.59116677 1090.64678181 166.11443353 1095.60722637 C163.43148382 1100.97955265 160.74617144 1106.35069781 158.06114197 1111.72198486 C153.41701992 1121.01310413 148.77430853 1130.3049272 144.1325531 1139.597229 C137.41103823 1153.05292665 130.68685337 1166.50728876 123.96198016 1179.96130824 C120.82006859 1186.24713663 117.67828599 1192.53302948 114.53653717 1198.81893921 C114.22213575 1199.44798307 113.90773433 1200.07702693 113.58380559 1200.72513272 C106.11696844 1215.66460587 98.65139454 1230.60471023 91.18603516 1245.54492188 C90.85981137 1246.19778308 90.53358759 1246.85064429 90.19747824 1247.52328917 C85.23576974 1257.45300159 80.27412738 1267.38274705 75.3125 1277.3125 C70.02135914 1287.90171146 64.73019394 1298.49091076 59.43896484 1309.08007812 C59.11292438 1309.73257364 58.78688392 1310.38506915 58.45096345 1311.05733725 C50.9974179 1325.97388898 43.54350684 1340.8902579 36.08846283 1355.80606079 C35.77456763 1356.43409218 35.46067243 1357.06212357 35.13726526 1357.70918621 C32.00226771 1363.98156754 28.86720683 1370.25391721 25.73205162 1376.52621973 C19.01709341 1389.9604378 12.30322939 1403.39520105 5.59163533 1416.83110017 C0.6987835 1426.62602781 -4.19549599 1436.42024095 -9.09114206 1446.2137723 C-11.73848145 1451.50978994 -14.38516791 1456.80613118 -17.03006172 1462.10337067 C-19.45743173 1466.96492348 -21.88670153 1471.82552227 -24.31740004 1476.68541169 C-25.19011831 1478.43111675 -26.06217127 1480.17715462 -26.93343967 1481.92358375 C-31.26235633 1490.59983603 -35.64903398 1499.23775066 -40.18512726 1507.80775452 C-45.18023197 1517.24507585 -49.98415382 1526.77108815 -54.75073242 1536.32543945 C-55.66776923 1538.15979395 -56.58498461 1539.99405919 -57.50236034 1541.82824421 C-59.99340376 1546.81003874 -62.48197451 1551.79306471 -64.97010946 1556.77631235 C-67.66532938 1562.17317866 -70.36291167 1567.568864 -73.06021118 1572.96469116 C-77.7256141 1582.29837226 -82.38960641 1591.63275729 -87.05264282 1600.96762085 C-93.80492695 1614.48485659 -100.55988078 1628.00075695 -107.31552303 1641.51631463 C-110.47175269 1647.83077919 -113.62785337 1654.14530822 -116.78392029 1660.45985413 C-117.09975525 1661.09176506 -117.41559021 1661.72367599 -117.74099592 1662.37473574 C-125.24198124 1677.3825053 -132.74170332 1692.39090604 -140.24121094 1707.39941406 C-140.56892956 1708.05526496 -140.89664819 1708.71111585 -141.23429768 1709.38684101 C-146.21874754 1719.36203615 -151.20313126 1729.33726433 -156.1875 1739.3125 C-161.50289216 1749.95021406 -166.81830867 1760.58791596 -172.13378906 1771.22558594 C-172.46132358 1771.88106956 -172.7888581 1772.53655319 -173.1263179 1773.21189995 C-180.61395054 1788.19662579 -188.10194867 1803.18116885 -195.59107971 1818.16514587 C-195.90640615 1818.79603975 -196.2217326 1819.42693363 -196.54661439 1820.07694551 C-199.69589742 1826.3778978 -202.84524379 1832.67881844 -205.99468448 1838.97969193 C-212.74038306 1852.47539085 -219.48498738 1865.97163499 -226.22732201 1879.46901485 C-231.14257809 1889.30875069 -236.05926168 1899.14777226 -240.97731185 1908.98611188 C-243.63680282 1914.30643273 -246.29564073 1919.62707725 -248.95268631 1924.94861984 C-251.39115906 1929.83237762 -253.83153115 1934.71518162 -256.27333224 1939.59727609 C-257.15008816 1941.35105647 -258.02617864 1943.10516973 -258.90148485 1944.8596741 C-263.23870291 1953.55247786 -267.63293866 1962.20731403 -272.17800903 1970.79351807 C-277.22874032 1980.33542833 -282.08297207 1989.96888469 -286.90258789 1999.62915039 C-287.83612391 2001.49650329 -288.76983847 2003.36376694 -289.70371342 2005.23095036 C-292.24036315 2010.30395743 -294.77453965 2015.37819632 -297.30828142 2020.45265627 C-300.05258215 2025.94768271 -302.7992441 2031.44152875 -305.54562378 2036.93551636 C-310.29615031 2046.43944502 -315.04526601 2055.94407739 -319.79342651 2065.44918823 C-326.66878764 2079.21257638 -333.54681734 2092.97462971 -340.4255358 2106.73634017 C-343.6390378 2113.16534944 -346.85241084 2119.59442318 -350.06575012 2126.02351379 C-350.38731923 2126.66689302 -350.70888833 2127.31027224 -351.04020195 2127.9731478 C-358.67777993 2143.25410298 -366.3140948 2158.53568929 -373.95019531 2173.81738281 C-374.28389331 2174.48519245 -374.6175913 2175.15300208 -374.96140136 2175.84104837 C-380.03681665 2185.9981744 -385.11216581 2196.15533346 -390.1875 2206.3125 C-395.59989738 2217.14422448 -401.01231909 2227.97593679 -406.42480469 2238.80761719 C-406.75831543 2239.47505326 -407.09182617 2240.14248933 -407.4354433 2240.83015074 C-415.05942433 2256.08757303 -422.68377069 2271.34481261 -430.30924988 2286.60148621 C-430.79082701 2287.56500196 -430.79082701 2287.56500196 -431.28213298 2288.54798269 C-434.48855796 2294.96321885 -437.69504626 2301.37842336 -440.90162888 2307.79358074 C-447.77028895 2321.53520303 -454.6378545 2335.27737072 -461.50315139 2349.0206736 C-466.50802451 2359.03964242 -471.51432433 2369.05789729 -476.52199101 2379.07547021 C-479.23008828 2384.49300388 -481.93753202 2389.9108615 -484.64318466 2395.32961655 C-487.12606838 2400.30219419 -489.61084965 2405.27381903 -492.09706104 2410.24473369 C-492.98996755 2412.03081535 -493.88220814 2413.81723013 -494.77366555 2415.6040355 C-499.56659575 2425.20981927 -504.45129435 2434.75661962 -509.47347647 2444.24461913 C-513.95157184 2452.72259836 -518.24309337 2461.29057862 -522.52294922 2469.86987305 C-523.41523721 2471.65472995 -524.30770383 2473.43949756 -525.20033073 2475.22418499 C-527.62296468 2480.06916071 -530.04312684 2484.91536728 -532.46285152 2489.76179647 C-535.08445018 2495.01142261 -537.70841301 2500.25986688 -540.33209229 2505.50845337 C-544.8698099 2514.58676334 -549.40610888 2523.66578098 -553.94146729 2532.74526978 C-560.50916055 2545.89326461 -567.07947595 2559.03994786 -573.65050387 2572.18627632 C-576.72082502 2578.32892381 -579.79101717 2584.47163577 -582.86117554 2590.61436462 C-583.16840928 2591.22907312 -583.47564302 2591.84378161 -583.79218687 2592.47711764 C-591.08828321 2607.07510877 -598.38311612 2621.67373116 -605.67773438 2636.27246094 C-605.99648394 2636.91037372 -606.31523351 2637.5482865 -606.64364216 2638.20552997 C-611.49164387 2647.90782878 -616.33957943 2657.61016065 -621.1875 2667.3125 C-626.35738434 2677.65919844 -631.52729302 2688.00588472 -636.69726562 2698.35253906 C-637.01583581 2698.99009402 -637.33440599 2699.62764897 -637.66262981 2700.28452377 C-644.94573986 2714.86020494 -652.22921563 2729.4357032 -659.51382446 2744.01063538 C-659.82056344 2744.62435432 -660.12730241 2745.23807325 -660.4433365 2745.87038974 C-663.50690662 2751.99991623 -666.57054008 2758.12941105 -669.63426787 2764.25885873 C-676.4879757 2777.97076721 -683.34028061 2791.68337499 -690.19048548 2805.39703393 C-694.67909599 2814.38271002 -699.16914106 2823.36766832 -703.6602931 2832.35207438 C-706.24687463 2837.52657601 -708.83280385 2842.70140084 -711.41693878 2847.87712479 C-713.78879503 2852.62765279 -716.16255342 2857.37722549 -718.53773904 2862.12608969 C-719.39026907 2863.83141814 -720.24213443 2865.5370791 -721.0932138 2867.243132 C-726.27490279 2877.62908999 -731.58235426 2887.93906867 -737.01713467 2898.1949861 C-739.80732489 2903.46784905 -742.48002693 2908.79665656 -745.12109375 2914.14550781 C-745.6331839 2915.17757355 -746.14527405 2916.20963928 -746.67288208 2917.27297974 C-747.76270918 2919.4695681 -748.8516467 2921.66659804 -749.93972778 2923.86405182 C-751.96949876 2927.96096532 -754.005396 2932.05481501 -756.04165363 2936.14850736 C-756.48983338 2937.04953313 -756.48983338 2937.04953313 -756.94706726 2937.96876144 C-757.24770269 2938.57314844 -757.54833813 2939.17753543 -757.85808372 2939.80023718 C-761.88218377 2947.89099392 -765.90232947 2955.9836833 -769.91113281 2964.08203125 C-772.93496006 2970.19047192 -775.96961192 2976.29344431 -779.01028442 2982.39351654 C-780.15564866 2984.69588309 -781.29740888 2987.00004663 -782.43527222 2989.30612946 C-788.64778786 3001.8928362 -795.05759215 3013.86254079 -803.1875 3025.3125 C-804.13559516 3026.77050858 -805.07642558 3028.23336787 -806 3029.70703125 C-814.26409594 3042.70797568 -823.03866296 3052.77410864 -838.5390625 3056.9453125 C-853.29612951 3058.99127754 -866.74051779 3057.39360533 -878.87109375 3048.22265625 C-885.98713492 3042.3546223 -890.58857662 3036.86343035 -894.1875 3028.3125 C-894.54070313 3027.51199219 -894.89390625 3026.71148438 -895.2578125 3025.88671875 C-899.60542306 3013.848587 -897.05412758 3000.79593869 -894.25799561 2988.7194519 C-893.20325477 2984.15389216 -892.20491889 2979.57571026 -891.1953125 2975 C-890.9645401 2973.96048691 -890.7337677 2972.92097382 -890.4960022 2971.84996033 C-887.21313111 2957.01023267 -884.15974101 2942.1217257 -881.07813263 2927.23920441 C-880.38137866 2923.875641 -879.68335798 2920.51234095 -878.98536491 2917.1490345 C-873.95096392 2892.88900692 -868.95372561 2868.62141975 -863.97369003 2844.35018253 C-857.74788952 2814.00865951 -851.49127563 2783.67350685 -845.23076248 2753.33912992 C-844.81288308 2751.31435614 -844.39501217 2749.2895806 -843.97714233 2747.26480484 C-835.26065279 2705.02965872 -826.53814949 2662.79575458 -817.8125 2620.5625 C-817.55922188 2619.33658142 -817.30594376 2618.11066284 -817.04499054 2616.84759521 C-815.5734471 2609.72507768 -814.10178301 2602.60258508 -812.62996864 2595.48012352 C-812.15526238 2593.18286828 -811.68058026 2590.88560805 -811.20592308 2588.58834267 C-808.58935192 2575.92477636 -805.97048093 2563.26169012 -803.34691334 2550.59957147 C-802.39599917 2546.00983392 -801.44550698 2541.42000895 -800.49489975 2536.83020782 C-799.73327473 2533.15401514 -798.97091616 2529.47797511 -798.20852661 2525.80194092 C-795.50451707 2512.75292001 -792.84002112 2499.69713106 -790.25 2486.625 C-788.32042012 2476.89815243 -786.32066458 2467.19530529 -784.17016602 2457.51489258 C-782.03567259 2447.80911879 -780.12194317 2438.05964067 -778.1875 2428.3125 C-775.90749027 2416.82414202 -773.5935167 2405.35162951 -771.05078125 2393.91796875 C-769.13678494 2385.24118547 -767.41514146 2376.52784849 -765.6875 2367.8125 C-763.7882093 2358.23124095 -761.87036964 2348.66035275 -759.75 2339.125 C-757.40698919 2328.57254635 -755.2959052 2317.97623787 -753.1875 2307.375 C-750.4593625 2293.65885036 -747.68540479 2279.95509906 -744.80712891 2266.26953125 C-743.61010835 2260.55703598 -742.43131747 2254.84075913 -741.25 2249.125 C-740.99992187 2247.91650391 -740.74984375 2246.70800781 -740.4921875 2245.46289062 C-739.19534173 2239.19480276 -737.90191009 2232.92603249 -736.61328125 2226.65625 C-736.35554932 2225.40497314 -736.09781738 2224.15369629 -735.83227539 2222.86450195 C-735.32331551 2220.39201908 -734.81596369 2217.91920459 -734.31030273 2215.44604492 C-733.24876645 2210.2856123 -732.17058505 2205.13825141 -730.921875 2200.01953125 C-727.33759839 2185.32521317 -725.84151204 2171.46039863 -733.6484375 2157.74609375 C-735.08544888 2155.53222089 -736.59881691 2153.4191373 -738.1875 2151.3125 C-738.785625 2150.425625 -739.38375 2149.53875 -740 2148.625 C-748.21358175 2139.94207072 -761.05704475 2134.40356743 -772.9375 2133.8125 C-783.06207672 2133.89617419 -792.35717005 2137.23159575 -801.92724609 2140.27734375 C-805.18097179 2141.31042724 -808.44198032 2142.31583624 -811.70703125 2143.3125 C-815.84005736 2144.57445551 -819.9704373 2145.84418593 -824.09765625 2147.125 C-843.98057142 2153.27677725 -863.91695953 2159.25560403 -883.84545898 2165.25756836 C-897.31703157 2169.31548449 -910.77713749 2173.40766969 -924.22175598 2177.55406189 C-932.19892069 2180.01289118 -940.18721255 2182.42986746 -948.1875 2184.8125 C-957.76033872 2187.67507332 -967.32498254 2190.56213167 -976.875 2193.5 C-977.93557617 2193.82621338 -978.99615234 2194.15242676 -980.08886719 2194.48852539 C-985.00562488 2196.00571609 -989.91627849 2197.53925449 -994.81640625 2199.109375 C-995.68628174 2199.3875708 -996.55615723 2199.6657666 -997.45239258 2199.95239258 C-999.04596612 2200.46385783 -1000.63836892 2200.97899382 -1002.22924805 2201.4987793 C-1016.30849508 2206.02511602 -1029.822872 2205.84595057 -1043.1875 2199.3125 C-1054.36205402 2192.53035351 -1062.14173979 2182.33139419 -1066.29296875 2170.0390625 C-1068.88486895 2159.2413647 -1067.6333878 2148.01159734 -1065.09375 2137.328125 C-1064.63244937 2135.29752845 -1064.17423466 2133.2662293 -1063.71850586 2131.234375 C-1063.47107635 2130.13125977 -1063.22364685 2129.02814453 -1062.96871948 2127.89160156 C-1061.50390849 2121.18067404 -1060.18168339 2114.44099336 -1058.84765625 2107.703125 C-1058.55265832 2106.21824348 -1058.25756784 2104.73338034 -1057.96238708 2103.24853516 C-1056.75371766 2097.1641066 -1055.54962466 2091.07877491 -1054.34692383 2084.99316406 C-1050.91848356 2067.6533932 -1047.39575805 2050.35333908 -1043.48364258 2033.11474609 C-1041.71599486 2025.29293373 -1040.14050026 2017.43216204 -1038.6015625 2009.5625 C-1038.27333496 2007.88414062 -1038.27333496 2007.88414062 -1037.93847656 2006.171875 C-1037.21737877 2002.46605125 -1036.49838098 1998.75982801 -1035.7802887 1995.05342102 C-1034.91700791 1990.59792327 -1034.05249191 1986.14266584 -1033.1875 1981.6875 C-1033.01352692 1980.79076569 -1032.83955383 1979.89403137 -1032.66030884 1978.97012329 C-1030.53502413 1968.02851287 -1028.33974186 1957.11271831 -1025.91015625 1946.23388672 C-1024.12440004 1938.18742611 -1022.59167354 1930.09865779 -1021.06176758 1922.00024414 C-1019.53271087 1913.96268013 -1017.8333758 1905.97407055 -1016.06030273 1897.98730469 C-1014.49305612 1890.86845171 -1013.09701039 1883.72599994 -1011.75 1876.5625 C-1010.05822009 1867.58495746 -1008.19948051 1858.66120501 -1006.1875 1849.75 C-1002.66574532 1834.13280116 -999.56072414 1818.44558447 -996.53125 1802.7265625 C-995.93798376 1799.65094812 -995.34415393 1796.57544301 -994.75 1793.5 C-994.60122406 1792.7292514 -994.45244812 1791.95850281 -994.29916382 1791.16439819 C-992.10916684 1779.83663846 -989.77714895 1768.55034193 -987.31884766 1757.27734375 C-985.40534528 1748.45959672 -983.68435334 1739.61364565 -982.01123047 1730.74755859 C-980.49996635 1722.79372829 -978.81451654 1714.88933676 -977.06005859 1706.98608398 C-975.49284445 1699.86765811 -974.09667582 1692.72563502 -972.75 1685.5625 C-971.02922122 1676.41494971 -969.11669669 1667.32836756 -967.0625 1658.25 C-959.73608502 1630.04389561 -959.73608502 1630.04389561 -965.1875 1602.3125 C-965.6 1601.46042969 -966.0125 1600.60835937 -966.4375 1599.73046875 C-972.61706338 1588.30178762 -982.15465427 1581.7282232 -994.1875 1577.3125 C-1005.59069443 1574.49140047 -1017.30148375 1576.27033885 -1028.43811035 1579.27371216 C-1031.99024236 1580.23092705 -1035.55920194 1581.12266153 -1039.125 1582.02734375 C-1039.86542542 1582.21719345 -1040.60585083 1582.40704315 -1041.36871338 1582.60264587 C-1049.68169665 1584.72320752 -1058.05600628 1586.54851134 -1066.4375 1588.375 C-1077.21822487 1590.73656312 -1087.96804136 1593.18352358 -1098.6875 1595.8125 C-1110.25886832 1598.65028659 -1121.86947209 1601.26517905 -1133.50524902 1603.82174683 C-1143.67956481 1606.05942428 -1153.8194922 1608.39300043 -1163.9375 1610.875 C-1174.57382828 1613.48403569 -1185.24435589 1615.87993253 -1195.9498291 1618.18289185 C-1206.9328455 1620.55024229 -1217.84999952 1623.13697306 -1228.75915527 1625.82247925 C-1239.5304506 1628.47024552 -1250.3328449 1630.91119369 -1261.17724609 1633.23974609 C-1271.38930683 1635.43645379 -1281.5448338 1637.8156805 -1291.6875 1640.3125 C-1303.22979306 1643.15380295 -1314.79835985 1645.80288688 -1326.41958618 1648.30108643 C-1339.82798694 1651.18658307 -1353.15069925 1654.37660306 -1366.46557617 1657.66748047 C-1378.57844084 1660.53788933 -1393.01545989 1661.56603189 -1404.1875 1655.3125 C-1415.04723124 1648.60676431 -1422.10167626 1640.98894177 -1427.1875 1629.3125 C-1427.70682098 1628.1916954 -1427.70682098 1628.1916954 -1428.2366333 1627.04824829 C-1429.32367048 1623.92072253 -1429.44228649 1621.45402927 -1429.44433594 1618.14599609 C-1429.44709534 1616.92570709 -1429.44985474 1615.70541809 -1429.45269775 1614.44815063 C-1429.44252625 1613.1323703 -1429.43235474 1611.81658997 -1429.421875 1610.4609375 C-1429.41749043 1609.43628954 -1429.41749043 1609.43628954 -1429.41301727 1608.39094162 C-1429.34447095 1593.57349284 -1428.53725085 1578.81408592 -1427.5726738 1564.03017044 C-1427.33852692 1560.40526489 -1427.11579712 1556.77965998 -1426.89282227 1553.15405273 C-1426.82415561 1552.03775309 -1426.82415561 1552.03775309 -1426.75410175 1550.89890194 C-1426.66060082 1549.37817444 -1426.5671516 1547.85744376 -1426.47375298 1546.33670998 C-1426.33158704 1544.02794235 -1426.18822981 1541.719251 -1426.04469299 1539.41056824 C-1425.35988529 1528.35827151 -1424.73176236 1517.30356863 -1424.13671875 1506.24609375 C-1424.09448433 1505.46154753 -1424.05224991 1504.6770013 -1424.00873566 1503.86868095 C-1423.79708127 1499.93207202 -1423.58625415 1495.99541925 -1423.37579346 1492.05874634 C-1421.94411037 1465.29594198 -1420.35726327 1438.55050408 -1418.49902344 1411.81347656 C-1417.03666765 1390.74058333 -1415.88403596 1369.65822198 -1414.8125 1348.5625 C-1413.71054015 1326.87455616 -1412.52331852 1305.19300333 -1411.25365448 1283.51426697 C-1411.12722488 1281.35057622 -1411.00173721 1279.18683284 -1410.87652588 1277.02307129 C-1410.08151139 1263.30430855 -1409.24358271 1249.59321597 -1408.1484375 1235.89453125 C-1407.23223877 1224.40871594 -1406.59339314 1212.92171676 -1406.03997803 1201.41329956 C-1404.77026083 1175.14358818 -1403.27237604 1148.88750654 -1401.73135757 1122.63254166 C-1401.5629944 1119.75843976 -1401.39565634 1116.88427986 -1401.22860718 1114.01010132 C-1400.96317105 1109.44590527 -1400.69517884 1104.88186634 -1400.42514992 1100.31793976 C-1400.32530169 1098.62530131 -1400.22618997 1096.93261922 -1400.12787437 1095.23989105 C-1399.26299074 1080.3764896 -1399.26299074 1080.3764896 -1398.40997314 1073.39042664 C-1397.93852025 1068.9869984 -1397.78407207 1064.5588397 -1397.57421875 1060.13671875 C-1397.46156982 1057.87434584 -1397.348855 1055.61197621 -1397.23608398 1053.34960938 C-1397.17750214 1052.15489014 -1397.11892029 1050.9601709 -1397.05856323 1049.72924805 C-1396.74015362 1043.26047757 -1396.41043377 1036.79228837 -1396.078125 1030.32421875 C-1396.04323912 1029.64468014 -1396.00835323 1028.96514153 -1395.9724102 1028.26501083 C-1395.13553181 1012.0073418 -1394.20642416 995.75521698 -1393.25320816 979.50400162 C-1393.1269506 977.34584223 -1393.00171653 975.18762585 -1392.87680054 973.02938843 C-1392.08164537 959.30851937 -1391.24375107 945.59532196 -1390.1484375 931.89453125 C-1389.23223877 920.40871594 -1388.59339314 908.92171676 -1388.03997803 897.41329956 C-1386.77026083 871.14358818 -1385.27237604 844.88750654 -1383.73135757 818.63254166 C-1383.5629944 815.75843976 -1383.39565634 812.88427986 -1383.22860718 810.01010132 C-1382.96317105 805.44590527 -1382.69517884 800.88186634 -1382.42514992 796.31793976 C-1382.32530169 794.62530131 -1382.22618997 792.93261922 -1382.12787437 791.23989105 C-1381.99163968 788.89863857 -1381.85239962 786.55758285 -1381.71240234 784.21655273 C-1381.63484711 782.90146225 -1381.55729187 781.58637177 -1381.47738647 780.23143005 C-1381.27619959 777.51161588 -1381.02753327 774.84208066 -1380.70570374 772.13818359 C-1380.02041118 766.17354709 -1379.71086028 760.19008741 -1379.37133789 754.19750977 C-1379.29637589 752.90791351 -1379.22141388 751.61831726 -1379.1441803 750.28964233 C-1378.93940277 746.76486633 -1378.73763653 743.23992399 -1378.53653646 739.71493649 C-1378.32276016 735.97490568 -1378.10655352 732.23501517 -1377.89073181 728.49510193 C-1377.52676817 722.18132057 -1377.16478092 715.8674282 -1376.80395508 709.5534668 C-1376.39367388 702.37453708 -1375.98029152 695.19579142 -1375.56512266 688.01714283 C-1375.16005203 681.01160584 -1374.75743519 674.00592958 -1374.35577202 667.00019646 C-1374.18793316 664.07352243 -1374.01932093 661.14689477 -1373.84996223 658.2203083 C-1373.10003919 645.24908323 -1372.35776156 632.27801391 -1371.76657104 619.2984314 C-1371.71344428 618.13237933 -1371.71344428 618.13237933 -1371.65924424 616.94277066 C-1371.62306341 616.14819213 -1371.58688259 615.3536136 -1371.54960537 614.53495693 C-1370.13088232 583.40662638 -1368.25626903 552.30434949 -1366.41585159 521.19875526 C-1366.12215064 516.23449921 -1365.8291885 511.27019972 -1365.53634644 506.30589294 C-1364.72129768 492.49123553 -1363.90540969 478.67662833 -1363.08613586 464.86222076 C-1363.03429223 463.98802525 -1362.98244859 463.11382973 -1362.92903394 462.21314344 C-1362.85112102 460.89939177 -1362.85112102 460.89939177 -1362.7716341 459.55909967 C-1362.66643963 457.78533085 -1362.56124649 456.01156195 -1362.45605469 454.23779297 C-1362.40387925 453.35801086 -1362.3517038 452.47822875 -1362.29794729 451.57178658 C-1361.44713986 437.22259244 -1360.60275701 422.87302777 -1359.76103723 408.52329797 C-1358.89160236 393.70262398 -1358.01691193 378.88226782 -1357.13692951 364.06221628 C-1356.64498229 355.77514949 -1356.15525135 347.48796542 -1355.6713562 339.20042419 C-1355.26100078 332.17280071 -1354.84583438 325.14548212 -1354.42442012 318.11851275 C-1354.2099891 314.54055726 -1353.99779233 310.96250732 -1353.79175186 307.384058 C-1353.56809171 303.50072711 -1353.33350136 299.61809931 -1353.09790039 295.73547363 C-1353.03505324 294.61429374 -1352.9722061 293.49311385 -1352.90745449 292.33795881 C-1351.93412442 276.73075783 -1348.21818589 262.47633971 -1336.14854431 251.65458679 C-1325.86659004 243.52190563 -1314.29910965 240.74366603 -1301.71484375 238.38671875 C-1299.97501964 238.0449062 -1298.23555369 237.7012665 -1296.49641418 237.35598755 C-1291.72405405 236.4138266 -1286.94711238 235.49709942 -1282.16905212 234.5843544 C-1276.9349087 233.57957701 -1271.70554935 232.55044089 -1266.47558594 231.52416992 C-1257.27567906 229.72201332 -1248.07307055 227.93423727 -1238.86865234 226.15527344 C-1223.92450139 223.26626748 -1208.98727656 220.34235144 -1194.05078125 217.4140625 C-1188.78268181 216.38167047 -1183.51452905 215.34955084 -1178.24633789 214.31762695 C-1177.5826266 214.18761264 -1176.91891532 214.05759833 -1176.23509157 213.92364419 C-1165.86777498 211.89293516 -1155.49949673 209.86718495 -1145.13061523 207.84448242 C-1144.07136988 207.63784535 -1144.07136988 207.63784535 -1142.99072564 207.42703378 C-1140.10791136 206.86466336 -1137.22509325 206.30231256 -1134.34227258 205.73997492 C-1106.59451649 200.32729024 -1078.85023138 194.89715823 -1051.109375 189.44921875 C-1050.26319768 189.28304243 -1049.41702036 189.11686612 -1048.5452013 188.94565415 C-1038.20059531 186.91408324 -1027.85609933 184.88195251 -1017.51164031 182.8496334 C-1001.00792447 179.60725258 -984.50404912 176.36568398 -968 173.125 C-967.14961749 172.95801975 -966.29923498 172.7910395 -965.42308331 172.61899924 C-930.181902 165.69925432 -894.93552383 158.8062606 -859.68742371 151.92185974 C-849.58319296 149.94836453 -839.47902022 147.97457279 -829.375 146 C-828.69884895 145.86786354 -828.02269791 145.73572708 -827.32605743 145.59958649 C-803.33998271 140.91188813 -779.35688165 136.2090995 -755.375 131.5 C-754.52490105 131.33307396 -753.67480209 131.16614792 -752.79894257 130.99416351 C-739.76169743 128.43410596 -726.72458845 125.87335531 -713.6875 123.3125 C-663.69207506 113.49197529 -613.69337284 103.68865562 -563.68742371 93.92185974 C-553.58319296 91.94836453 -543.47902022 89.97457279 -533.375 88 C-532.69884895 87.86786354 -532.02269791 87.73572708 -531.32605743 87.59958649 C-507.33998271 82.91188813 -483.35688165 78.2090995 -459.375 73.5 C-458.09985157 73.24961094 -458.09985157 73.24961094 -456.79894257 72.99416351 C-443.76169743 70.43410596 -430.72458845 67.87335531 -417.6875 65.3125 C-338.75666064 49.80823618 -338.75666064 49.80823618 -302 42.625 C-301.32268908 42.49263341 -300.64537816 42.36026681 -299.94754267 42.22388911 C-287.23507862 39.73956517 -274.52236247 37.25653221 -261.80950928 34.77420044 C-253.82864308 33.21582463 -245.84786148 31.65701615 -237.8671875 30.09765625 C-237.19893747 29.96708745 -236.53068744 29.83651865 -235.8421874 29.70199323 C-211.16205611 24.87946478 -186.48632578 20.03463256 -161.81161022 15.18447828 C-158.01023132 14.43729907 -154.20882556 13.69025657 -150.40741849 12.94322073 C-145.6837114 12.01493397 -140.96001754 11.08657983 -136.23632812 10.15820312 C-135.30419794 9.97500605 -134.37206775 9.79180898 -133.41169119 9.60306048 C-122.28509288 7.41620971 -111.15875842 5.2280248 -100.0328027 3.03790706 C-93.08295812 1.66992239 -86.13287146 0.30317229 -79.18260181 -1.0626511 C-74.36469944 -2.00950971 -69.54709984 -2.95788859 -64.72973132 -3.90745938 C-61.78466519 -4.48757705 -58.83930421 -5.06618608 -55.89385509 -5.64435577 C-53.90373045 -6.0354615 -51.91395952 -6.42836581 -49.92420197 -6.82133484 C-32.0786992 -10.31942277 -15.33192197 -11.66710552 0 0 Z " fill="#FEC922" transform="translate(2782.1875,22.6875)"/>
</svg>
